<svg width="48" height="48" viewBox="0 0 48 48" fill="none" xmlns="http://www.w3.org/2000/svg">
<g opacity="0.5" clip-path="url(#clip0_1852_311)">
<path d="M23.8544 22.4801H20.3053V16.4041H24.5157C26.8049 16.4041 28.104 17.4481 28.104 19.3361C28.104 21.3521 26.5916 22.4801 23.8505 22.4801H23.8544ZM24.4883 24.8921H20.3073V31.5881H24.6723C27.5268 31.5881 29.0392 30.4181 29.0392 28.2181C29.0392 26.0181 27.4838 24.8921 24.4883 24.8921ZM47.7827 22.7801V25.2161C45.5757 25.4321 44.2277 27.1041 43.4275 29.7521C42.6312 32.3901 42.5216 35.6261 42.6057 38.1241C42.6938 40.7241 40.7118 43.1241 38.0333 43.1241H10.5794C7.899 43.1241 5.91704 40.7241 6.00704 38.1241C6.09117 35.6261 5.98161 32.3901 5.1853 29.7521C4.38313 27.1041 3.03313 25.4321 0.826172 25.2161V22.7801C3.03313 22.5641 4.38509 20.8921 5.18335 18.2441C5.98161 15.6061 6.09117 12.3701 6.00509 9.87207C5.91704 7.27207 7.899 4.87207 10.5794 4.87207H38.0333C40.7138 4.87207 42.6938 7.27207 42.6057 9.87207C42.5216 12.3701 42.6312 15.6061 43.4275 18.2441C44.2277 20.8921 45.5757 22.5641 47.7827 22.7801ZM32.2733 28.4141C32.2733 25.7061 30.4088 23.7481 27.6403 23.4381V23.3241C29.6751 22.9861 31.2716 21.0541 31.2716 18.8981C31.2716 15.8241 28.8983 13.8221 25.2807 13.8221H17.1416V34.1661H25.3218C29.6614 34.1661 32.2733 31.9941 32.2733 28.4141Z" fill="#868389"/>
</g>
<defs>
<clipPath id="clip0_1852_311">
<rect width="46.9565" height="48" fill="white" transform="translate(0.826172)"/>
</clipPath>
</defs>
</svg>
