<svg width="148" height="801" viewBox="0 0 148 801" fill="none" xmlns="http://www.w3.org/2000/svg">
<path fill-rule="evenodd" clip-rule="evenodd" d="M1.23105 14.2011C14.3482 9.81162 22.6872 5.14875 26.4739 0.225952C25.3231 6.25477 21.5245 13.9048 16.9077 21.666C21.748 22.2467 26.4726 20.5147 32.5847 22.3675C28.6395 23.9887 24.5784 23.7605 20.749 27.2316C34.8251 35.2079 43.12 31.3907 52.2235 33.817C49.0943 39.1941 46.5108 41.0119 40.4909 43.614L43.8288 43.4788L31.2576 58.3012C37.4728 62.9244 43.6881 65.6136 49.9037 64.9944C43.238 65.7539 31.2538 64.8939 29.9069 67.2724C34.8006 67.4411 42.1091 66.5176 44.5882 67.7787C38.5243 68.0953 33.5711 68.6899 30.1144 69.9265C29.9014 79.0368 32.944 85.2401 40.2394 87.6453C29.8503 87.3317 28.41 85.0068 26.8695 85.4975C31.616 92.7304 28.2185 95.1373 35.9818 104.482L29.9069 100.938C53.8692 123.551 60.5641 129.277 101.794 168.776C104.178 171.059 104.311 194.262 104.073 195.354C102.306 203.433 99.0099 207.841 96.4788 214.085C99.2986 216.567 102.526 221.382 101.394 224.134L99.1562 229.57C96.3123 247.722 126.989 278.807 138.134 322.034C139.932 341.193 154.375 401.83 144.679 442.916C133.074 464.098 116.801 437.609 102.557 435.299C101.584 432.834 98.0467 430.022 99.6371 427.902C100.407 426.875 101.983 426.104 101.947 424.822C101.177 397.617 100.407 370.412 99.6371 343.208C90.8434 321.719 86.7367 321.58 78.4637 300.09C82.6837 342.125 88.986 356.04 94.2473 384.015C87.9966 397.383 82.6905 404.145 77.8294 407.792L72.738 390.843L74.6521 404.05L73.6948 406.921L73.3119 423.573L81.5422 450.177C79.3728 455.047 75.1208 455.403 75.0345 461.662C71.9083 462.874 68.4347 462.698 65.6559 465.298C64.6353 468.042 63.9625 473.368 62.5936 473.529L56.0859 474.294L54.5547 469.126C53.7889 471.423 52.7632 476.076 52.2577 476.017L49.0039 475.634C51.3558 514.816 58.7239 547.397 56.0593 593.18C71.5301 621.758 69.0459 682.021 75.5392 726.442C78.9101 755.362 82.2814 784.283 85.6523 813.203C84.4317 813.813 81.9788 814.94 82.1491 816.293C83.1503 824.251 79.4252 836.672 85.1527 840.166C85.8742 847.767 87.1535 848.548 87.3166 862.968L95.6225 874.373C95.7802 881.414 97.163 894.074 96.0959 895.495C90.7952 902.549 82.2974 916.552 80.1944 916.66C76.7031 916.838 70.5331 917.979 69.7208 917.195C60.8832 908.664 58.8715 904.859 53.4466 898.691C54.1397 887.949 52.6018 880.226 55.5264 866.464C52.3068 863.089 50.6898 860.771 50.9404 858.703L54.1947 831.844C53.2513 829.348 54.4554 824.021 51.3651 824.354C42.6066 822.339 48.6764 821.494 44.3748 808.875C39.2555 733.671 20.0613 670.483 14.5988 594.593L0.651215 518.277L1.23105 14.2011Z" fill="#EDEDED"/>
</svg>
