<svg width="48" height="48" viewBox="0 0 48 48" fill="none" xmlns="http://www.w3.org/2000/svg">
<g opacity="0.5" clip-path="url(#clip0_1852_326)">
<path d="M41.7813 42.846L45.5242 0H3.89136L3.94027 0.556L7.62831 42.852L7.65962 43.204L24.5503 48H24.8164L41.7461 43.2L41.7774 42.848L41.7813 42.846ZM24.744 9.358H36.8411L36.4772 13.678L24.5424 19.102L24.742 20.078H35.9411L34.6518 35.18L24.7009 38L14.754 35.184L14.1279 27.952H18.2229L18.5516 31.618L18.5829 31.974L24.6187 33.614H24.879L30.8483 31.918L30.8777 31.564L31.4411 24.792L31.4861 24.24H13.7855L13.4137 19.894L25.7574 14.492L25.5618 13.512H12.8835L12.5216 9.352H24.7303L24.744 9.358Z" fill="#868389"/>
</g>
<defs>
<clipPath id="clip0_1852_326">
<rect width="46.9565" height="48" fill="white" transform="translate(0.956543)"/>
</clipPath>
</defs>
</svg>
