<svg width="26" height="26" viewBox="0 0 26 26" fill="none" xmlns="http://www.w3.org/2000/svg">
<path d="M13 25C19.6274 25 25 19.6274 25 13C25 6.37258 19.6274 1 13 1C6.37258 1 1 6.37258 1 13C1 19.6274 6.37258 25 13 25Z" stroke="#F9F9F9" stroke-width="2" stroke-linecap="round" stroke-linejoin="round"/>
<path d="M24.7 14.008C20.5 12.892 16.744 13.024 13.972 14.008C10.876 15.112 7.95999 17.44 5.04399 21.592M8.87199 1.90002C14.116 9.13602 16.096 13.204 18.508 23.164L8.87199 1.90002ZM21.556 4.70802C17.092 9.92802 10.828 11.5 1.29999 11.728L21.556 4.70802Z" stroke="#F9F9F9" stroke-width="2" stroke-linecap="round" stroke-linejoin="round"/>
</svg>
