<svg width="26" height="28" viewBox="0 0 96 96" fill="none" xmlns="http://www.w3.org/2000/svg">
<g opacity="0.5">
<path d="M91.284 43.989L51.999 4.70696C50.949 3.65996 49.5 3.01196 47.898 3.01196C46.296 3.01196 44.847 3.65996 43.797 4.70696L35.658 12.861L46.005 23.208C46.665 22.977 47.424 22.845 48.216 22.845C52.023 22.845 55.107 25.929 55.107 29.736C55.107 30.543 54.969 31.314 54.714 32.034L54.729 31.986L64.695 41.958C65.361 41.721 66.132 41.583 66.933 41.583C70.737 41.583 73.821 44.667 73.821 48.471C73.821 52.275 70.737 55.359 66.933 55.359C63.129 55.359 60.045 52.275 60.045 48.471C60.045 47.532 60.234 46.638 60.573 45.822L60.555 45.867L51.225 36.585V61.047C53.517 62.202 55.062 64.536 55.062 67.23C55.062 71.04 51.972 74.13 48.162 74.13C44.352 74.13 41.262 71.04 41.262 67.23C41.262 65.328 42.03 63.609 43.275 62.361C43.908 61.728 44.661 61.215 45.498 60.855L45.543 60.837V36.135C43.017 35.073 41.277 32.616 41.277 29.757C41.277 28.797 41.472 27.885 41.826 27.054L41.808 27.099L31.641 16.884L4.70101 43.806C3.65701 44.859 3.01501 46.308 3.01501 47.91C3.01501 49.512 3.66001 50.961 4.70401 52.014L43.992 91.29C45.039 92.34 46.488 92.988 48.09 92.988C49.692 92.988 51.138 92.34 52.188 91.29L91.29 52.188C92.34 51.141 92.991 49.689 92.991 48.09C92.991 46.491 92.34 45.039 91.29 43.992L91.284 43.989Z" fill="#868389"/>
</g>
</svg>
