<svg width="48" height="48" viewBox="0 0 48 48" fill="none" xmlns="http://www.w3.org/2000/svg">
<g opacity="0.5" clip-path="url(#clip0_1852_322)">
<path fill-rule="evenodd" clip-rule="evenodd" d="M0.913086 0H47.8696V48H0.913086V0ZM36.8088 40.2392C34.6324 40.2392 33.4017 39.0788 32.4559 37.5002L28.87 39.6298C30.1654 42.246 32.813 44.2422 36.9109 44.2422C41.1018 44.2422 44.2227 42.0176 44.2227 37.9566C44.2227 34.1898 42.1059 32.5142 38.3568 30.8708L37.2537 30.3878C35.3606 29.5498 34.5406 29.002 34.5406 27.6488C34.5406 26.554 35.3598 25.7158 36.6523 25.7158C37.9193 25.7158 38.7354 26.262 39.492 27.6488L42.928 25.3936C41.4745 22.7802 39.4577 21.782 36.6523 21.782C32.7117 21.782 30.1901 24.3574 30.1901 27.7402C30.1901 31.4126 32.3053 33.1498 35.4895 34.5364L36.5926 35.0202C38.6051 35.92 39.805 36.4678 39.805 38.0144C39.805 39.3052 38.637 40.2392 36.8088 40.2392ZM19.7084 40.211C18.1923 40.211 17.5618 39.1482 16.8686 37.891L13.2768 40.114C14.3173 42.365 16.3633 44.234 19.8962 44.234C23.8062 44.234 26.485 42.1082 26.485 37.4378V22.0396H22.0727V37.3768C22.0727 39.6312 21.158 40.211 19.7084 40.211Z" fill="#868389"/>
</g>
<defs>
<clipPath id="clip0_1852_322">
<rect width="46.9565" height="48" fill="white" transform="translate(0.913086)"/>
</clipPath>
</defs>
</svg>
