<svg width="7" height="48" viewBox="0 0 7 48" fill="none" xmlns="http://www.w3.org/2000/svg">
<g opacity="0.5" clip-path="url(#clip0_1852_307)">
<path d="M24.261 11.2021C24.1925 11.2021 24.1123 11.2021 24.034 11.2021C20.884 11.2021 17.8123 11.5521 14.8579 12.2161L15.1397 12.1621C12.3184 12.7681 9.82185 13.6641 7.48967 14.8481L7.67358 14.7641C5.69554 15.7381 4.02076 17.0421 2.64532 18.6241L2.63163 18.6401C1.51445 19.8881 0.817932 21.5461 0.782715 23.3681V23.3761C0.819889 25.2041 1.51445 26.8581 2.63358 28.1101L2.62967 28.1041C4.0188 29.7021 5.69358 31.0061 7.57772 31.9381L7.67163 31.9801C9.81989 33.0781 12.3164 33.9761 14.9303 34.5441L15.1377 34.5821C17.8103 35.1921 20.8821 35.5421 24.0321 35.5421H24.2727H24.261H24.4879C27.6379 35.5421 30.7097 35.1921 33.664 34.5281L33.3823 34.5821C36.2036 33.9761 38.7001 33.0801 41.0323 31.8961L40.8484 31.9801C42.8264 31.0061 44.5012 29.7021 45.8766 28.1201L45.8903 28.1041C47.0075 26.8561 47.704 25.1981 47.7392 23.3761V23.3681C47.704 21.5381 47.0075 19.8801 45.8864 18.6261L45.8903 18.6321C44.5012 17.0341 42.8264 15.7301 40.9423 14.7981L40.8484 14.7561C38.7001 13.6581 36.2036 12.7601 33.5897 12.1921L33.3823 12.1541C30.7097 11.5441 27.6379 11.1941 24.4879 11.1941C24.4077 11.1941 24.3275 11.1941 24.2473 11.1941H24.259L24.261 11.2021ZM18.1566 25.7301C17.9003 25.9681 17.6088 26.1721 17.2918 26.3321L17.2703 26.3421C16.9945 26.4781 16.6677 26.6041 16.3273 26.7001L16.2862 26.7101C15.9497 26.8341 15.5603 26.9081 15.1534 26.9081C15.1377 26.9081 15.1221 26.9081 15.1064 26.9081H15.1084H11.2501L10.624 30.8341H7.79293L10.2973 17.4841H15.7227C15.7579 17.4841 15.801 17.4821 15.844 17.4821C16.5484 17.4821 17.2253 17.6081 17.8514 17.8401L17.8103 17.8261C18.3875 18.0421 18.8786 18.3781 19.2738 18.8041L19.2758 18.8061C19.6182 19.2521 19.8627 19.7921 19.9684 20.3841L19.9723 20.4061C20.0212 20.6981 20.0505 21.0341 20.0505 21.3781C20.0505 21.7701 20.0134 22.1521 19.9429 22.5241L19.9488 22.4861C19.8784 22.8441 19.7864 23.1561 19.671 23.4561L19.6847 23.4181C19.5725 23.7128 19.4525 23.9908 19.3247 24.2521C19.1655 24.5134 18.9895 24.7754 18.7964 25.0381C18.6086 25.2961 18.4032 25.5221 18.1762 25.7241L18.1703 25.7281L18.1566 25.7301ZM26.3192 26.9081L27.4247 21.2641C27.4716 21.0501 27.499 20.8061 27.499 20.5541C27.499 20.5021 27.4971 20.4501 27.4951 20.3981V20.4061C27.4932 20.1881 27.411 19.9901 27.2779 19.8401C27.1429 19.7201 26.9825 19.6281 26.8064 19.5721L26.7966 19.5701C26.5521 19.4901 26.2703 19.4461 25.9788 19.4461C25.9455 19.4461 25.9123 19.4461 25.879 19.4481H25.8829H23.6799L22.2399 26.9081H19.4558L21.9601 13.9481H24.7442L24.0732 17.4821H26.5775C26.6205 17.4821 26.6695 17.4801 26.7203 17.4801C27.3679 17.4801 27.9979 17.5621 28.6005 17.7141L28.5477 17.7021C29.0349 17.8121 29.4595 18.0461 29.8018 18.3661L29.7999 18.3641C30.1051 18.6101 30.3223 18.9601 30.3986 19.3601L30.4005 19.3701C30.4279 19.5481 30.4436 19.7521 30.4436 19.9601C30.4436 20.3001 30.4025 20.6301 30.3223 20.9441L30.3282 20.9161L29.1758 26.9041L26.3192 26.9081ZM41.7797 22.5401C41.7014 22.9021 41.6192 23.1961 41.5214 23.4861L41.539 23.4241C41.4334 23.7421 41.3042 24.0181 41.1458 24.2741L41.1555 24.2581C41.0205 24.5681 40.8601 24.8341 40.6703 25.0741L40.6762 25.0661C40.4845 25.3101 40.279 25.5261 40.056 25.7241L40.0501 25.7301C39.7938 25.9681 39.5023 26.1721 39.1853 26.3321L39.1638 26.3421C38.8879 26.4781 38.5612 26.6041 38.2208 26.7001L38.1797 26.7101C37.8432 26.8341 37.4538 26.9081 37.0468 26.9081C37.0312 26.9081 37.0155 26.9081 36.9999 26.9081H37.0018H33.1436L32.4725 30.8261H29.6884L32.1927 17.4761H37.5712C37.6142 17.4741 37.6632 17.4741 37.714 17.4741C38.4282 17.4741 39.1149 17.6001 39.7508 17.8341L39.7077 17.8201C40.2692 18.0281 40.7427 18.3641 41.1125 18.7961L41.1164 18.8001C41.4882 19.2441 41.7523 19.7941 41.856 20.3981L41.8599 20.4181C41.9029 20.6801 41.9284 20.9801 41.9284 21.2881C41.9284 21.7301 41.8775 22.1581 41.7816 22.5701L41.7895 22.5321L41.7797 22.5401ZM36.4971 19.4461H34.5836L33.5799 24.9441H35.2547H35.3564C35.8455 24.9441 36.3268 24.8981 36.7925 24.8121L36.7436 24.8201C37.1427 24.7481 37.4988 24.6021 37.8118 24.3961L37.8001 24.4021C38.0662 24.1581 38.2892 23.8761 38.4634 23.5601L38.4712 23.5441C38.6727 23.1681 38.8234 22.7301 38.8997 22.2681L38.9036 22.2441C38.9642 21.9861 38.9975 21.6881 38.9975 21.3821C38.9975 21.2341 38.9897 21.0881 38.974 20.9461L38.976 20.9641C38.9486 20.6481 38.8351 20.3621 38.661 20.1261L38.6629 20.1301C38.436 19.9141 38.164 19.7461 37.8627 19.6441L37.8471 19.6401C37.4832 19.5161 37.0664 19.4461 36.6321 19.4461C36.5871 19.4461 36.5421 19.4461 36.499 19.4481H36.5049L36.4971 19.4461ZM14.6036 19.4461H12.6901L11.6825 24.9441H13.3612H13.4629C13.9521 24.9441 14.4334 24.8981 14.899 24.8121L14.8501 24.8201C15.2492 24.7481 15.6053 24.6021 15.9184 24.3961L15.9066 24.4021C16.1727 24.1581 16.3958 23.8761 16.5699 23.5601L16.5777 23.5441C16.7792 23.1681 16.9299 22.7301 17.0062 22.2681L17.0101 22.2441C17.0708 21.9861 17.104 21.6881 17.104 21.3821C17.104 21.2341 17.0962 21.0881 17.0805 20.9461L17.0825 20.9641C17.0551 20.6481 16.9416 20.3621 16.7675 20.1261L16.7695 20.1301C16.5425 19.9141 16.2705 19.7461 15.9692 19.6441L15.9536 19.6401C15.5897 19.5161 15.1729 19.4461 14.7386 19.4461C14.6936 19.4461 14.6486 19.4461 14.6055 19.4481H14.6114L14.6036 19.4461Z" fill="#868389"/>
</g>
<defs>
<clipPath id="clip0_1852_307">
<rect width="46.9565" height="48" fill="white" transform="translate(0.782715)"/>
</clipPath>
</defs>
</svg>
