<svg width="64" height="64" viewBox="0 0 64 64" fill="none" xmlns="http://www.w3.org/2000/svg">
<g opacity="0.5" clip-path="url(#clip0_1840_469)">
<path d="M32 14.936C31.9067 14.936 31.7973 14.936 31.6907 14.936C27.3973 14.936 23.2107 15.4026 19.184 16.288L19.568 16.216C15.7227 17.024 12.32 18.2186 9.14133 19.7973L9.392 19.6853C6.696 20.984 4.41333 22.7226 2.53867 24.832L2.52 24.8533C0.997333 26.5173 0.048 28.728 0 31.1573V31.168C0.0506667 33.6053 0.997333 35.8106 2.52267 37.48L2.51733 37.472C4.41067 39.6026 6.69333 41.3413 9.26133 42.584L9.38933 42.64C12.3173 44.104 15.72 45.3013 19.2827 46.0586L19.5653 46.1093C23.208 46.9226 27.3947 47.3893 31.688 47.3893H32.016H32H32.3093C36.6027 47.3893 40.7893 46.9226 44.816 46.0373L44.432 46.1093C48.2773 45.3013 51.68 44.1066 54.8587 42.528L54.608 42.64C57.304 41.3413 59.5867 39.6026 61.4613 37.4933L61.48 37.472C63.0027 35.808 63.952 33.5973 64 31.168V31.1573C63.952 28.7173 63.0027 26.5066 61.4747 24.8346L61.48 24.8426C59.5867 22.712 57.304 20.9733 54.736 19.7306L54.608 19.6746C51.68 18.2106 48.2773 17.0133 44.7147 16.256L44.432 16.2053C40.7893 15.392 36.6027 14.9253 32.3093 14.9253C32.2 14.9253 32.0907 14.9253 31.9813 14.9253H31.9973L32 14.936ZM23.68 34.3066C23.3307 34.624 22.9333 34.896 22.5013 35.1093L22.472 35.1226C22.096 35.304 21.6507 35.472 21.1867 35.6L21.1307 35.6133C20.672 35.7786 20.1413 35.8773 19.5867 35.8773C19.5653 35.8773 19.544 35.8773 19.5227 35.8773H19.5253H14.2667L13.4133 41.112H9.55467L12.968 23.312H20.3627C20.4107 23.312 20.4693 23.3093 20.528 23.3093C21.488 23.3093 22.4107 23.4773 23.264 23.7866L23.208 23.768C23.9947 24.056 24.664 24.504 25.2027 25.072L25.2053 25.0746C25.672 25.6693 26.0053 26.3893 26.1493 27.1786L26.1547 27.208C26.2213 27.5973 26.2613 28.0453 26.2613 28.504C26.2613 29.0266 26.2107 29.536 26.1147 30.032L26.1227 29.9813C26.0267 30.4586 25.9013 30.8746 25.744 31.2746L25.7627 31.224C25.6098 31.6168 25.4462 31.9875 25.272 32.336C25.0551 32.6844 24.8151 33.0337 24.552 33.384C24.296 33.728 24.016 34.0293 23.7067 34.2986L23.6987 34.304L23.68 34.3066ZM34.8053 35.8773L36.312 28.352C36.376 28.0666 36.4133 27.7413 36.4133 27.4053C36.4133 27.336 36.4107 27.2666 36.408 27.1973V27.208C36.4053 26.9173 36.2933 26.6533 36.112 26.4533C35.928 26.2933 35.7093 26.1706 35.4693 26.096L35.456 26.0933C35.1227 25.9866 34.7387 25.928 34.3413 25.928C34.296 25.928 34.2507 25.928 34.2053 25.9306H34.2107H31.208L29.2453 35.8773H25.4507L28.864 18.5973H32.6587L31.744 23.3093H35.1573C35.216 23.3093 35.2827 23.3066 35.352 23.3066C36.2347 23.3066 37.0933 23.416 37.9147 23.6186L37.8427 23.6026C38.5067 23.7493 39.0853 24.0613 39.552 24.488L39.5493 24.4853C39.9653 24.8133 40.2613 25.28 40.3653 25.8133L40.368 25.8266C40.4053 26.064 40.4267 26.336 40.4267 26.6133C40.4267 27.0666 40.3707 27.5066 40.2613 27.9253L40.2693 27.888L38.6987 35.872L34.8053 35.8773ZM55.8773 30.0533C55.7707 30.536 55.6587 30.928 55.5253 31.3146L55.5493 31.232C55.4053 31.656 55.2293 32.024 55.0133 32.3653L55.0267 32.344C54.8427 32.7573 54.624 33.112 54.3653 33.432L54.3733 33.4213C54.112 33.7466 53.832 34.0346 53.528 34.2986L53.52 34.3066C53.1707 34.624 52.7733 34.896 52.3413 35.1093L52.312 35.1226C51.936 35.304 51.4907 35.472 51.0267 35.6L50.9707 35.6133C50.512 35.7786 49.9813 35.8773 49.4267 35.8773C49.4053 35.8773 49.384 35.8773 49.3627 35.8773H49.3653H44.1067L43.192 41.1013H39.3973L42.8107 23.3013H50.1413C50.2 23.2986 50.2667 23.2986 50.336 23.2986C51.3093 23.2986 52.2453 23.4666 53.112 23.7786L53.0533 23.76C53.8187 24.0373 54.464 24.4853 54.968 25.0613L54.9733 25.0666C55.48 25.6586 55.84 26.392 55.9813 27.1973L55.9867 27.224C56.0453 27.5733 56.08 27.9733 56.08 28.384C56.08 28.9733 56.0107 29.544 55.88 30.0933L55.8907 30.0426L55.8773 30.0533ZM48.6773 25.928H46.0693L44.7013 33.2586H46.984H47.1227C47.7893 33.2586 48.4453 33.1973 49.08 33.0826L49.0133 33.0933C49.5573 32.9973 50.0427 32.8026 50.4693 32.528L50.4533 32.536C50.816 32.2106 51.12 31.8346 51.3573 31.4133L51.368 31.392C51.6427 30.8906 51.848 30.3066 51.952 29.6906L51.9573 29.6586C52.04 29.3146 52.0853 28.9173 52.0853 28.5093C52.0853 28.312 52.0747 28.1173 52.0533 27.928L52.056 27.952C52.0187 27.5306 51.864 27.1493 51.6267 26.8346L51.6293 26.84C51.32 26.552 50.9493 26.328 50.5387 26.192L50.5173 26.1866C50.0213 26.0213 49.4533 25.928 48.8613 25.928C48.8 25.928 48.7387 25.928 48.68 25.9306H48.688L48.6773 25.928ZM18.8373 25.928H16.2293L14.856 33.2586H17.144H17.2827C17.9493 33.2586 18.6053 33.1973 19.24 33.0826L19.1733 33.0933C19.7173 32.9973 20.2027 32.8026 20.6293 32.528L20.6133 32.536C20.976 32.2106 21.28 31.8346 21.5173 31.4133L21.528 31.392C21.8027 30.8906 22.008 30.3066 22.112 29.6906L22.1173 29.6586C22.2 29.3146 22.2453 28.9173 22.2453 28.5093C22.2453 28.312 22.2347 28.1173 22.2133 27.928L22.216 27.952C22.1787 27.5306 22.024 27.1493 21.7867 26.8346L21.7893 26.84C21.48 26.552 21.1093 26.328 20.6987 26.192L20.6773 26.1866C20.1813 26.0213 19.6133 25.928 19.0213 25.928C18.96 25.928 18.8987 25.928 18.84 25.9306H18.848L18.8373 25.928Z" fill="#868389"/>
</g>
<defs>
<clipPath id="clip0_1840_469">
<rect width="64" height="64" fill="white"/>
</clipPath>
</defs>
</svg>
