<svg width="48" height="48" viewBox="0 0 48 48" fill="none" xmlns="http://www.w3.org/2000/svg">
<g opacity="0.5" clip-path="url(#clip0_1852_315)">
<path d="M28.5252 23.9539C28.5252 26.3201 26.6487 28.2383 24.3339 28.2383C22.0191 28.2383 20.1426 26.3201 20.1426 23.9539C20.1426 21.5877 22.0191 19.6694 24.3339 19.6694C26.6487 19.6694 28.5252 21.5877 28.5252 23.9539Z" fill="#868389"/>
<path d="M24.3324 33.7671C23.9828 33.776 23.5706 33.7813 23.1567 33.7813C18.268 33.7813 13.5532 33.0258 9.11671 31.6231L9.45236 31.7138C7.1028 30.9386 5.06627 29.7955 3.2941 28.3306L3.33062 28.3591C1.95845 27.344 1.03497 25.7724 0.878448 23.9733L0.876709 23.9502C0.876709 21.1164 3.91497 18.3431 9.01758 16.5333C13.3863 15.0631 18.4141 14.2151 23.635 14.2151C23.8767 14.2151 24.1184 14.2169 24.3602 14.2204H24.3237C24.5254 14.2169 24.7619 14.2151 25.0002 14.2151C30.1567 14.2151 35.1219 15.0489 39.7758 16.592L39.4367 16.4942C41.7063 17.248 43.6767 18.336 45.4071 19.7191L45.3654 19.6871C46.7132 20.6578 47.6228 22.1831 47.7758 23.9306L47.7776 23.9538C47.7776 26.8978 44.3793 29.8773 38.9028 31.7297C34.7932 33.0257 30.068 33.7724 25.1724 33.7724C24.8767 33.7724 24.5828 33.7689 24.2889 33.7635H24.3324V33.7671ZM24.3324 16.2738C24.148 16.2702 23.9289 16.2702 23.7098 16.2702C18.6993 16.2702 13.8732 17.0738 9.34627 18.5618L9.67845 18.4675C4.98627 20.1404 2.88193 22.4284 2.88193 23.9555C2.88193 25.5431 5.14453 28.0444 10.1045 29.776C14.0158 31.0151 18.5115 31.7297 23.1706 31.7297C23.5793 31.7297 23.9863 31.7244 24.3915 31.7138L24.3324 31.7155C24.5863 31.7209 24.8854 31.7244 25.1845 31.7244C29.8524 31.7244 34.3567 31.0133 38.6019 29.6924L38.2767 29.7795C43.4245 28.0302 45.7898 25.5289 45.7898 23.9484C45.6124 22.8142 44.9863 21.8578 44.1098 21.2551L44.0958 21.2462C42.5898 20.048 40.8332 19.0826 38.9306 18.448L38.8089 18.4124C34.6906 17.0506 29.9515 16.2649 25.035 16.2649C24.788 16.2649 24.5428 16.2666 24.2976 16.2702H24.3341L24.3324 16.2738Z" fill="#868389"/>
<path d="M14.8227 45.3084C14.7949 45.3084 14.7618 45.3101 14.7305 45.3101C13.9427 45.3101 13.2036 45.0986 12.5653 44.7288L12.5879 44.7413C10.1914 43.319 9.3566 39.2444 10.3618 33.8239C11.574 28.263 13.5392 23.3457 16.1775 18.8906L16.0575 19.111C18.6644 14.391 21.814 10.3537 25.4923 6.89416L25.527 6.86216C27.1323 5.36171 29.0105 4.12971 31.0696 3.25683L31.1966 3.20883C31.9044 2.86038 32.7357 2.65771 33.614 2.65771C34.4853 2.65771 35.3114 2.8586 36.0488 3.21594L36.014 3.20171C38.5096 4.67016 39.3375 9.17505 38.167 14.9457C36.9149 20.2204 35.0053 24.8657 32.494 29.095L32.6157 28.8764C30.0905 33.5519 27.0349 37.5555 23.4575 40.999L23.4331 41.0221C21.767 42.5813 19.8105 43.8488 17.6575 44.7235L17.5288 44.7697C16.7288 45.0915 15.8036 45.2888 14.8349 45.3119H14.8244L14.8227 45.3084ZM16.9183 19.6248L17.7862 20.1368C15.3844 24.1902 13.4992 28.8941 12.3844 33.8968L12.3253 34.2168C11.3983 39.2106 12.2923 42.2133 13.5775 42.9741C13.9096 43.1555 14.3027 43.2604 14.7201 43.2604C14.7549 43.2604 14.7914 43.2604 14.8262 43.2586H14.8209C16.4818 43.2586 19.0957 42.183 22.1183 39.4861C25.5549 36.167 28.4731 32.3342 30.7653 28.1013L30.8836 27.8613C33.1757 24.0284 35.007 19.5893 36.1444 14.871L36.2105 14.5475C37.3044 9.11105 36.3601 5.78305 35.0175 4.9866C34.6036 4.81949 34.1236 4.72349 33.6227 4.72349C32.9896 4.72349 32.3914 4.87816 31.8627 5.15016L31.8853 5.13949C29.9409 5.96616 28.2714 7.07016 26.8296 8.42127L26.8418 8.4106C23.2923 11.7546 20.2818 15.623 17.9096 19.9093L17.7896 20.1439L16.9183 19.6248Z" fill="#868389"/>
<path d="M33.8436 45.3334C31.5723 45.3334 28.6958 43.9343 25.6871 41.2872C21.9045 37.7619 18.701 33.6748 16.1845 29.1379L16.0593 28.8943C13.5723 24.7183 11.6228 19.8721 10.468 14.7165L10.4054 14.3876C10.1237 13.1272 9.96191 11.6819 9.96191 10.1974C9.96191 9.26053 10.0263 8.34141 10.1497 7.44008L10.1376 7.54319C10.2854 5.76897 11.195 4.24008 12.5237 3.2783L12.541 3.26586C15.028 1.7903 19.2628 3.30853 23.5706 7.22675C27.0871 10.6294 30.0889 14.5387 32.4715 18.8534L32.5967 19.0988C35.0802 23.1823 37.0437 27.9183 38.235 32.9619L38.301 33.2925C38.5845 34.553 38.748 36.0019 38.748 37.4881C38.748 38.5139 38.6715 39.5201 38.5219 40.5032L38.5358 40.393C38.3567 42.2099 37.4158 43.7725 36.0506 44.7592L36.0315 44.7716C35.4263 45.1254 34.7028 45.3334 33.9323 45.3334C33.901 45.3334 33.8697 45.3334 33.8384 45.3316H33.8436V45.3334ZM17.795 27.8703C20.3306 32.441 23.3897 36.3521 26.9619 39.7032L26.9967 39.7352C30.7637 43.0472 33.7515 43.7636 35.0454 42.9956C36.3897 42.2028 37.3741 38.9494 36.3567 33.6925C35.1358 28.5548 33.2489 24.0321 30.7584 19.9308L30.8715 20.1299C28.4732 15.7636 25.6071 12.0196 22.2663 8.78053L22.2454 8.76097C18.1863 5.07386 14.8976 4.24541 13.5532 5.0383C12.7306 5.72275 12.1897 6.73075 12.1184 7.8703V7.88275C12.0228 8.57608 11.9689 9.37608 11.9689 10.1903C11.9689 11.5361 12.1184 12.8445 12.4002 14.1032L12.3776 13.9859C13.548 19.2339 15.4158 23.8685 17.9115 28.073L17.7967 27.865L17.795 27.8703Z" fill="#868389"/>
</g>
<defs>
<clipPath id="clip0_1852_315">
<rect width="46.9565" height="48" fill="white" transform="translate(0.869629)"/>
</clipPath>
</defs>
</svg>
