<svg width="48" height="48" viewBox="0 0 48 48" fill="none" xmlns="http://www.w3.org/2000/svg">
<g clip-path="url(#clip0_2022_31)">
<path opacity="0.5" d="M24.002 9.6001C17.602 9.6001 13.602 12.8001 12.002 19.2001C14.402 16.0001 17.202 14.8001 20.402 15.6001C22.228 16.0561 23.532 17.3801 24.978 18.8481C27.332 21.2361 30.054 24.0001 36.002 24.0001C42.402 24.0001 46.402 20.8001 48.002 14.4001C45.602 17.6001 42.802 18.8001 39.602 18.0001C37.776 17.5441 36.472 16.2201 35.026 14.7521C32.674 12.3641 29.952 9.6001 24.002 9.6001ZM12.002 24.0001C5.60195 24.0001 1.60195 27.2001 0.00195312 33.6001C2.40195 30.4001 5.20195 29.2001 8.40195 30.0001C10.228 30.4561 11.532 31.7801 12.978 33.2481C15.332 35.6361 18.054 38.4001 24.002 38.4001C30.402 38.4001 34.402 35.2001 36.002 28.8001C33.602 32.0001 30.802 33.2001 27.602 32.4001C25.776 31.9441 24.472 30.6201 23.026 29.1521C20.674 26.7641 17.952 24.0001 12.002 24.0001Z" fill="#868389"/>
</g>
<defs>
<clipPath id="clip0_2022_31">
<rect width="48" height="48" fill="white"/>
</clipPath>
</defs>
</svg>
